<svg version="1" xmlns="http://www.w3.org/2000/svg" width="933.333" height="933.333" viewBox="0 0 700.000000 700.000000"><path d="M115.5 1.8c-9.1 3.1-15.6 9.7-19 19.2-1.5 4.1-1.6 33-1.7 328.5 0 235.1.3 325.2 1.1 328.2 2.7 9.9 12.3 19.1 22.3 21.3 3.3.7 81.1 1 243.7 1h238.7l2.2-2c1.2-1.2 2.2-2.8 2.3-3.8.4-11.9 0-688.3-.5-689.8-.3-1.2-1.8-2.6-3.2-3.2C599.5.3 538.1 0 359.7 0 135.5.1 120.2.2 115.5 1.8zM126 293.4l.5 278.8 2.3 1.8c2.7 2.2 6.8 1.8 9.6-1 1.9-1.8 1.9-7.7 2-280.2l.1-278.3 225.3-.1H591V639H140.4l-.1-8.5c-.2-10.9-.7-12.1-5-13.6-3.1-1-3.9-.9-6.2.8-2.5 1.9-2.6 2.5-2.9 11.7l-.3 9.6H123c-1.6 0-5.3.9-8.2 2-2.9 1.1-5.4 2-5.5 2-.2 0-.3-138.4-.3-307.6 0-288.6.1-307.8 1.7-311.2 1-2.1 2.8-4.6 4.2-5.7 2.7-2.2 8-4.5 9.6-4.1.7.2 1.2 94.4 1.5 279zm465 375.9v16.2H355.8l-235.3-.1-3.7-2.3c-4.1-2.5-7.8-9-7.8-13.6 0-6.6 5.4-13.6 11.9-15.5 1.4-.4 107.8-.8 236.4-.9L591 653v16.3z"/><path d="M311.4 122.9c-12.8 3.7-23.2 12.4-29.8 25.1-2.1 4.1-4 7.7-4.2 7.8-.1.2-6.9.5-15.1.6-15 .3-19.7 1.1-28.8 4.9-18 7.5-31.8 25.8-34.3 45.2-.8 7-.7 132.3.1 141.5 2.1 21.1 9 43.8 18.9 62 4.2 7.7 14.4 23 16 24.1 1 .6.6 5.3-1.7 23.4-.2 1.6-.7 5.5-1 8.5-.3 3-.8 7.1-1 9-.2 1.9-.7 5.7-1 8.5-.3 2.7-.7 6.6-1 8.5-2.5 20.7-2.8 26-1.5 28.4 1.8 3.5 5.9 4.1 11.2 1.8 2.4-1.1 18-8.2 34.8-15.7 16.8-7.6 32.8-14.8 35.6-16l5.2-2.4 7.3 1.9c13 3.3 25.9 4.7 43.1 4.7 19.5 0 28.4-1 45.4-5.2 14.7-3.7 35.3-12.9 48.3-21.7 32.4-21.9 56.9-55.7 66.6-92 1.4-5.1 2.8-11.3 3.1-13.8.3-2.5.8-4.8 1-5.2 1.3-2.2 1.8-27.1 1.8-97.8 0-87.1-.1-89.5-4.9-98.7-.8-1.5-1.5-3.2-1.5-3.6 0-2.1-8-12.7-13.7-18.2-7.5-7.3-17.5-12.9-27.9-15.5-7.4-1.9-11.1-2-86.3-1.9-71.7 0-79.1.2-84.7 1.8zm171.1 14.9c11.8 4.4 22 13.1 27.5 23.3 5.8 11 5.8 11.2 5.9 73.7l.1 57.3-6-5.3-6-5.2v-16.7c0-19.7-.8-25.1-5.5-34.5-5.9-12-17.7-21.2-31.3-24.4-4.3-1-33.6-1.5-59.7-1.1-2.6.1-5.3 2.3-16.3 13.1-7.2 7.1-13.4 13-13.7 13-.3 0-.5-4.8-.5-10.7 0-9.6-.2-10.9-2.2-13l-2.1-2.3h-41.9c-39.1 0-41.8-.1-41.9-1.8 0-.9 0-4.5.1-7.8.1-5.1-.3-6.6-2.2-8.9-2.9-3.4-7.1-3.6-10.1-.6-1.8 1.8-2.2 3.4-2.3 9.9-.1 4.2-.2 8-.3 8.3 0 .3-3 .9-6.7 1.3-19.3 2-34.4 14.1-40.9 33.1-1.4 4-1.8 8.9-1.9 24.2l-.2 19.3-5.7 5.1-5.7 5.1v-42.6c.1-39.6.2-42.9 2-48.2 4-11.6 11.7-20.7 21.8-25.8 7.5-3.8 13.1-4.7 29.2-4.8 8 0 15.9-.4 17.6-.9 2.6-.8 4-2.6 8.5-11.1 3-5.5 7.1-11.8 9.2-13.9 4.2-4.2 11.2-8 16.7-8.9 1.9-.3 38.4-.6 81-.5l77.5.1 6 2.2zm-119.7 98.5l.2 16.8 3.1 1.8c1.6 1 4 1.6 5.3 1.4 1.3-.3 10.2-8.4 20.7-18.9l18.4-18.4h24.8c27.4 0 31.4.6 39.3 5.6 5.9 3.7 9.4 7.9 12.5 15 2 4.3 2.3 6.8 2.4 19.6.1 8.2-.1 14.8-.4 14.8-.3-.1-3.3-.7-6.6-1.5-6.5-1.6-18.7-1.9-25-.6-2.2.4-22.4 6.9-45 14.4-22.5 7.5-42.8 13.7-45 13.8-7 .5-12.5-.9-48.6-13-19.5-6.4-38.1-12.6-41.4-13.7-7.8-2.5-27.7-2.6-34.3-.2l-4.4 1.6.4-15.6c.3-14.8.5-16 3.1-21.4 4.4-9 13.6-16 23-17.6 2.3-.4 25.1-.7 50.7-.7h46.5l.3 16.8zM309 299c44.8 14.9 49 16 57.9 15.5 7.7-.5 2.4 1 52.1-15.2 45.2-14.8 49.1-15.6 60.8-12.6 30.3 7.8 45.1 41.4 30.4 68.8-4.9 9-12.3 15.1-31.9 26.3-20.3 11.6-23.9 13.1-32.1 13.4-14.2.4-18.4-2.2-44.2-27.7-12.3-12.1-23.1-21.9-25.2-22.9-7.9-3.6-15.3-3.8-24.3-.9-4.4 1.5-7.6 4.3-26.5 23.4-24 24.3-27.5 26.8-39.6 27.7-9.6.7-15-1.2-32.2-11.1-8.6-4.9-17-9.7-18.7-10.5-5.1-2.6-14.1-12.7-17.4-19.4-15.8-32.3 8.2-69.8 43.9-68.2 6.5.2 12.9 2.1 47 13.4zm59.1 57.7c2.7.5 8 5.1 25.4 22.3 26.8 26.5 32.4 29.9 49.9 30.5 11.2.4 21.2-2.9 36.4-12 .9-.6 6-3.4 11.2-6.4 5.2-2.9 11-6.4 12.8-7.8 1.8-1.4 3.5-2.3 3.7-2.2.8.9-6.7 17.4-11.8 26-17.5 29.7-45.3 53-76.7 64.3-18 6.5-33.2 9-54.5 9-18.9-.1-30.2-1.5-46.2-6l-5.2-1.5-11.3 4.9c-6.2 2.8-21 9.4-32.8 14.7-27.3 12.4-28.3 12.8-27.7 11.8.4-.8 1.2-7.2 2.3-18.8.2-2.8.6-6.1.9-7.5.3-1.4.7-5 1-8 .5-5.1.8-7.5 2-17 .2-1.9.7-5.8 1-8.5.3-2.8.7-6.8 1-9.1.4-3.7-.1-4.7-6.4-13.3-3.8-5.2-8.6-12.5-10.8-16.5-4.9-8.6-11.3-23.3-10.6-24 .3-.3 2 .5 3.7 1.8 6 4.5 38.6 22.5 42.8 23.7 15.5 4.2 28.7 2.5 42-5.4 4-2.3 12.4-10.5 34.5-33.3 11.6-12.1 14.4-13.5 23.4-11.7z"/><path d="M258.8 309.7c-18.6 4.8-28.4 25.3-20.4 42.8 3 6.7 8.6 12.2 15.5 15.7 4.3 2.2 6 2.3 26.4 2.5 19.1.3 22.3.1 26.6-1.6 22-8.3 27.7-35.5 11-51.9-7.4-7.2-12.2-8.4-34.7-8.6-13.1-.1-20.9.2-24.4 1.1zm46.8 15.9c6.3 4.7 8.9 11.4 7.2 18.4-1.2 4.8-6.7 10.7-11 11.8-1.7.4-11.2.7-21.2.7-17-.1-18.3-.2-22.2-2.4-10.7-6-11.3-20.8-1.1-28.2l3.9-2.9 20.8.3c19.3.2 21.1.4 23.6 2.3zM426.1 309.2c-10 1.7-18.5 8.3-22.9 17.8-3.6 7.5-3.6 18.2-.1 25.5 3 6.3 9 12.4 15.4 15.6 4.7 2.3 6.1 2.4 25.8 2.7 23.1.4 27.2-.3 35.4-5.9 17.1-11.8 16.9-38.4-.4-50.7-6.5-4.6-10.7-5.4-30.3-5.6-10.2-.1-20.5.2-22.9.6zm45.2 17.1c4.7 3.6 6.7 7.5 6.7 13.1 0 6.1-2.3 10.5-7.2 14l-4.1 3-18.6.1c-20.1.1-23.2-.4-27.7-4.4-7.1-6.3-7.6-16.9-1.1-24 4.3-4.7 6.8-5.1 28.3-4.8l20.1.2 3.6 2.8zM128.3 664.6c-2.9 2.9-2.9 6.8 0 9.8l2.2 2.2h219.9l219.8-.1 1.9-2.4c2.6-3.1 2.4-6.7-.4-9.5l-2.3-2.3H130.6l-2.3 2.3z"/></svg>